<?xml version="1.0" encoding="UTF-8"?>
<svg xmlns="http://www.w3.org/2000/svg" viewBox="0 0 900 620" width="1800" height="1240">
  <rect width="900" height="620" fill="#0f0b09"/>
  <g stroke="rgba(239,230,211,0.35)" stroke-width="1.4" fill="none">
    <path d="M450 310 C 300 200, 200 180, 130 140"/>
    <path d="M450 310 C 600 200, 700 180, 780 140"/>
    <path d="M450 310 C 350 420, 220 480, 130 520"/>
    <path d="M450 310 C 550 420, 680 480, 780 520"/>
    <path d="M450 310 C 350 350, 250 340, 130 320"/>
    <path d="M450 310 C 550 350, 650 340, 780 320"/>
    <path d="M130 140 C 200 220, 260 260, 320 270"/>
    <path d="M780 140 C 700 220, 640 260, 580 270"/>
    <path d="M130 520 C 250 500, 320 460, 380 400"/>
    <path d="M780 520 C 650 500, 580 460, 520 400"/>
    <path d="M130 320 C 220 340, 300 340, 380 340"/>
    <path d="M780 320 C 680 340, 600 340, 520 340"/>
  </g>
  <g>
    <circle cx="450" cy="310" r="60" fill="#a4181a" stroke="#f5efe4" stroke-width="3"/>
    <text x="450" y="305" text-anchor="middle" fill="#f5efe4" font-family="Fraunces, serif" font-size="18" font-weight="600">Te Pāti</text>
    <text x="450" y="325" text-anchor="middle" fill="#f5efe4" font-family="Fraunces, serif" font-size="18" font-weight="600">Māori</text>
  </g>
  <g font-family="Inter, sans-serif" font-size="12" fill="#0f0b09">
    <rect x="60" y="115" width="150" height="50" rx="4" fill="#d9a441"/>
    <text x="135" y="138" text-anchor="middle" font-family="Fraunces, serif" font-size="14" font-weight="600">Te Tiriti o Waitangi</text>
    <text x="135" y="154" text-anchor="middle" font-size="10">Article 2 · Rangatiratanga</text>
    <rect x="700" y="115" width="160" height="50" rx="4" fill="#d9a441"/>
    <text x="780" y="138" text-anchor="middle" font-family="Fraunces, serif" font-size="14" font-weight="600">Tino Rangatiratanga</text>
    <text x="780" y="154" text-anchor="middle" font-size="10">Unqualified sovereignty</text>
  </g>
  <g font-family="Inter, sans-serif" font-size="11" fill="#f5efe4">
    <polygon points="70,310 90,290 190,290 210,310 190,330 90,330" fill="#3a5a3a"/>
    <text x="140" y="314" text-anchor="middle">Waikato-Tainui</text>
    <polygon points="230,310 250,290 320,290 340,310 320,330 250,330" fill="#3a5a3a"/>
    <text x="285" y="314" text-anchor="middle">Ngāpuhi</text>
    <polygon points="560,310 580,290 660,290 680,310 660,330 580,330" fill="#3a5a3a"/>
    <text x="620" y="314" text-anchor="middle">Ngāi Tūhoe</text>
    <polygon points="700,310 720,290 830,290 850,310 830,330 720,330" fill="#3a5a3a"/>
    <text x="775" y="314" text-anchor="middle">Ngāi Tahu</text>
  </g>
  <g font-family="Inter, sans-serif" font-size="11">
    <rect x="60" y="500" width="150" height="45" rx="4" fill="#1c3f57"/>
    <text x="135" y="520" text-anchor="middle" fill="#f5efe4" font-weight="600">Māori-led Education</text>
    <text x="135" y="536" text-anchor="middle" fill="#f5efe4">Policy pou</text>
    <rect x="235" y="500" width="150" height="45" rx="4" fill="#efe6d3"/>
    <text x="310" y="520" text-anchor="middle" fill="#0f0b09" font-weight="600">5 Courses</text>
    <text x="310" y="536" text-anchor="middle" fill="#0f0b09">AI Literacy → Digital Pā</text>
    <rect x="410" y="500" width="160" height="45" rx="4" fill="#c65a2e"/>
    <text x="490" y="520" text-anchor="middle" fill="#f5efe4" font-weight="600">Campaigns</text>
    <text x="490" y="536" text-anchor="middle" fill="#f5efe4">Social · Street · Media · Online</text>
    <rect x="600" y="500" width="150" height="45" rx="4" fill="#f5efe4" stroke="#3a5a3a" stroke-width="2"/>
    <text x="675" y="520" text-anchor="middle" fill="#0f0b09" font-weight="600">Crowdfund</text>
    <text x="675" y="536" text-anchor="middle" fill="#0f0b09">Givealittle · Ko-fi · Substack</text>
  </g>
  <text x="450" y="590" text-anchor="middle" fill="#efe6d3" font-family="JetBrains Mono, monospace" font-size="10" letter-spacing="2">AI WARRIOR × TE PĀ LITERACY  ·  STATIC RHIZOME  ·  CC BY-SA 4.0</text>
</svg>
